<?xml version="1.0" standalone="no"?><svg xmlns="http://www.w3.org/2000/svg" viewBox="0 0 1440 320"><path fill="#000b76" fill-opacity="1" d="M0,320L24,298.7C48,277,96,235,144,202.7C192,171,240,149,288,165.3C336,181,384,235,432,245.3C480,256,528,224,576,229.3C624,235,672,277,720,288C768,299,816,277,864,272C912,267,960,277,1008,277.3C1056,277,1104,267,1152,245.3C1200,224,1248,192,1296,149.3C1344,107,1392,53,1416,26.7L1440,0L1440,320L1416,320C1392,320,1344,320,1296,320C1248,320,1200,320,1152,320C1104,320,1056,320,1008,320C960,320,912,320,864,320C816,320,768,320,720,320C672,320,624,320,576,320C528,320,480,320,432,320C384,320,336,320,288,320C240,320,192,320,144,320C96,320,48,320,24,320L0,320Z"></path></svg>